<svg viewBox="0 0 24 24" fill="none" xmlns="http://www.w3.org/2000/svg">
<path d="M13.0449 5.81284L17.9821 10.75H3.24988C3.20673 10.75 3.1641 10.7522 3.12207 10.7565C2.49175 10.8205 1.99988 11.3528 1.99988 12C1.99988 12.6904 2.55952 13.25 3.24988 13.25H17.9821L13.0449 18.1872C12.5568 18.6754 12.5568 19.4668 13.0449 19.955C13.5331 20.4431 14.3245 20.4431 14.8127 19.955L21.8838 12.8839C22.3719 12.3958 22.3719 11.6043 21.8838 11.1161L14.8127 4.04507C14.8051 4.03744 14.7974 4.02994 14.7896 4.02255C14.7352 3.97082 14.6773 3.92494 14.6166 3.8849C14.27 3.65607 13.8346 3.61794 13.4584 3.77048C13.308 3.8315 13.167 3.92303 13.0449 4.04507C13.0373 4.0527 13.0298 4.0604 13.0224 4.06817C12.5569 4.55789 12.5644 5.33231 13.0449 5.81284Z" fill="#ffffff"/>
</svg>
